<svg xmlns="http://www.w3.org/2000/svg" width="599.008" height="28.696" viewBox="0 0 599.008 28.696"><g transform="translate(-383.496 -20.652)"><path d="M635.095,37.663h.972a2.353,2.353,0,0,0,2.482,1.987,2.192,2.192,0,0,0,2.466-2.019c0-1.121-1-1.66-2.019-1.913l-1.39-.328c-2.123-.508-2.437-1.75-2.437-2.572a3.03,3.03,0,0,1,3.274-2.809,2.951,2.951,0,0,1,3.2,2.793h-.989a2.044,2.044,0,0,0-2.241-1.868,2.07,2.07,0,0,0-2.257,1.884c0,.479.148,1.3,1.689,1.66l1.39.328c1.628.4,2.765,1.287,2.765,2.78a3.156,3.156,0,0,1-3.452,2.992A3.276,3.276,0,0,1,635.095,37.663Z" fill="#231f20"/><path d="M645.3,36.96V30.128h.986V36.96a2.692,2.692,0,0,0,5.384,0V30.128h.986V36.96a3.678,3.678,0,0,1-7.356,0Z" fill="#231f20"/><path d="M656.037,37.663h.973a2.353,2.353,0,0,0,2.482,1.987,2.192,2.192,0,0,0,2.466-2.019c0-1.121-1-1.66-2.02-1.913l-1.39-.328c-2.122-.508-2.437-1.75-2.437-2.572a3.031,3.031,0,0,1,3.275-2.809,2.951,2.951,0,0,1,3.2,2.793H661.6a2.045,2.045,0,0,0-2.241-1.868,2.07,2.07,0,0,0-2.257,1.884c0,.479.148,1.3,1.689,1.66l1.39.328c1.628.4,2.764,1.287,2.764,2.78a3.155,3.155,0,0,1-3.451,2.992A3.276,3.276,0,0,1,656.037,37.663Z" fill="#231f20"/><path d="M672.543,31.055h-3.288v9.372h-.986V31.055h-3.275v-.927h7.549Z" fill="#231f20"/><path d="M679.993,37.692h-4.752l-1.031,2.735h-1.046l3.93-10.3h1.046l3.917,10.3h-1.031Zm-.344-.883-2.032-5.365-2.032,5.365Z" fill="#231f20"/><path d="M684.838,30.128h.985v10.3h-.985Z" fill="#231f20"/><path d="M697.233,30.128v10.3h-1.018l-5.278-8.581v8.581h-.985v-10.3h1.03l5.262,8.565V30.128Z" fill="#231f20"/><path d="M706.835,37.692h-4.752l-1.031,2.735h-1.047l3.93-10.3h1.047l3.917,10.3h-1.031Zm-.344-.883-2.032-5.365-2.033,5.365Z" fill="#231f20"/><path d="M718.712,37.586a2.808,2.808,0,0,1-2.915,2.841h-4.11v-10.3h3.737a2.449,2.449,0,0,1,2.736,2.54A2.337,2.337,0,0,1,716.8,34.94,2.654,2.654,0,0,1,718.712,37.586Zm-6.039-6.531v3.5H715.6a1.753,1.753,0,0,0-.2-3.5Zm5.053,6.457a2.045,2.045,0,0,0-2.138-2.093h-2.915V39.5h2.96A1.958,1.958,0,0,0,717.726,37.512Z" fill="#231f20"/><path d="M722.232,30.128h.986V39.5H727.6v.927h-5.368Z" fill="#231f20"/><path d="M736.541,39.5v.927H730.5v-10.3h5.876v.927h-4.9v3.856h4.273v.928h-4.273V39.5Z" fill="#231f20"/><path d="M744.277,30.128h.986V39.5h4.382v.927h-5.368Z" fill="#231f20"/><path d="M752.547,30.128h.986v10.3h-.986Z" fill="#231f20"/><path d="M763.74,30.128l-3.082,10.3h-1.031l-3.123-10.3h1.03l2.6,8.745,2.584-8.745Z" fill="#231f20"/><path d="M766.763,30.128h.986v10.3h-.986Z" fill="#231f20"/><path d="M779.159,30.128v10.3h-1.018l-5.278-8.581v8.581h-.986v-10.3h1.031l5.262,8.565V30.128Z" fill="#231f20"/><path d="M782.618,35.3a5.206,5.206,0,0,1,5.2-5.291,5.084,5.084,0,0,1,3.274,1.194l-.658.674a4.206,4.206,0,0,0-2.616-.943,4.36,4.36,0,0,0,0,8.716,3.5,3.5,0,0,0,3.724-3.111l.013-.222h-3.1v-.882h4.171c-.045,3.483-2.017,5.143-4.813,5.143A5.2,5.2,0,0,1,782.618,35.3Z" fill="#231f20"/><path d="M807.629,39.679v.9h-.241a1.886,1.886,0,0,1-2.017-1.39,3.064,3.064,0,0,1-2.751,1.39,3.157,3.157,0,0,1-3.274-3.2,3.017,3.017,0,0,1,1.794-2.751,2.529,2.529,0,0,1,1.554-4.617,2.721,2.721,0,0,1,2.318,1.21l-.777.508a1.791,1.791,0,0,0-1.541-.793,1.645,1.645,0,0,0-1.734,1.644,1.706,1.706,0,0,0,1.84,1.72h2.212V33.011h.957v1.3h1.361v.79h-1.361v2.228c0,1.2.193,2.347,1.435,2.347Zm-2.617-2.241V35.1h-2.167a2.284,2.284,0,0,0-2.572,2.244,2.373,2.373,0,0,0,4.739.09Z" fill="#231f20"/><path d="M822.392,30.128v10.3h-1.018L816.1,31.846v8.581h-.986v-10.3h1.03l5.263,8.565V30.128Z" fill="#231f20"/><path d="M832,37.692h-4.755l-1.03,2.735h-1.047l3.93-10.3h1.047l3.917,10.3H833.03Zm-.346-.883-2.033-5.365-2.032,5.365Z" fill="#231f20"/><path d="M842.243,31.055h-3.288v9.372h-.988V31.055H834.7v-.927h7.548Z" fill="#231f20"/><path d="M845.058,36.96V30.128h.986V36.96a2.692,2.692,0,0,0,5.383,0V30.128h.986V36.96a3.678,3.678,0,0,1-7.355,0Z" fill="#231f20"/><path d="M860.363,36.391l2.855,4.036h-1.2L859.2,36.391h-1.721v4.036h-.986v-10.3h3.827a2.844,2.844,0,0,1,2.976,3.14A2.84,2.84,0,0,1,860.363,36.391Zm-2.886-.911h2.6a2.009,2.009,0,0,0,2.228-2.212,1.966,1.966,0,0,0-1.972-2.213h-2.857Z" fill="#231f20"/><path d="M872.872,39.5v.927h-6.039v-10.3h5.875v.927h-4.9v3.856h4.273v.928h-4.273V39.5Z" fill="#231f20"/><path d="M886.647,39.5v.927h-6.039v-10.3h5.875v.927h-4.9v3.856h4.273v.928h-4.273V39.5Z" fill="#231f20"/><path d="M896.36,40.427l-3.079-4.739L890.2,40.427h-1.166l3.661-5.545-3.2-4.754h1.181l2.6,3.961,2.6-3.961h1.181l-3.2,4.754,3.676,5.545Z" fill="#231f20"/><path d="M907.334,33.268a2.847,2.847,0,0,1-2.99,3.137h-3.021v4.022h-.985v-10.3h4.051A2.844,2.844,0,0,1,907.334,33.268Zm-.986,0a1.968,1.968,0,0,0-1.975-2.213h-3.05V35.48H904.3A1.985,1.985,0,0,0,906.348,33.268Z" fill="#231f20"/><path d="M916.518,39.5v.927h-6.039v-10.3h5.875v.927h-4.9v3.856h4.274v.928h-4.274V39.5Z" fill="#231f20"/><path d="M923.572,36.391l2.854,4.036h-1.194l-2.826-4.036h-1.72v4.036H919.7v-10.3h3.827a2.845,2.845,0,0,1,2.976,3.14A2.84,2.84,0,0,1,923.572,36.391Zm-2.886-.911h2.6a2.009,2.009,0,0,0,2.228-2.212,1.966,1.966,0,0,0-1.971-2.213h-2.857Z" fill="#231f20"/><path d="M930.044,30.128h.986v10.3h-.986Z" fill="#231f20"/><path d="M941.2,39.5v.927h-6.04v-10.3h5.876v.927h-4.9v3.856h4.274v.928h-4.274V39.5Z" fill="#231f20"/><path d="M951.664,30.128v10.3h-1.018l-5.278-8.581v8.581h-.986v-10.3h1.031l5.262,8.565V30.128Z" fill="#231f20"/><path d="M955.115,35.3a5.209,5.209,0,0,1,5.172-5.278,4.979,4.979,0,0,1,3.648,1.557l-.7.626a4.046,4.046,0,0,0-2.945-1.255,4.353,4.353,0,0,0,0,8.7,4.07,4.07,0,0,0,2.945-1.255l.7.626a4.979,4.979,0,0,1-3.648,1.557A5.209,5.209,0,0,1,955.115,35.3Z" fill="#231f20"/><path d="M973.111,39.5v.927h-6.039v-10.3h5.875v.927h-4.9v3.856h4.273v.928h-4.273V39.5Z" fill="#231f20"/><path d="M975.6,37.663h.973a2.352,2.352,0,0,0,2.481,1.987,2.192,2.192,0,0,0,2.466-2.019c0-1.121-1-1.66-2.019-1.913l-1.39-.328c-2.122-.508-2.437-1.75-2.437-2.572a3.031,3.031,0,0,1,3.275-2.809,2.951,2.951,0,0,1,3.2,2.793h-.988a2.045,2.045,0,0,0-2.241-1.868,2.07,2.07,0,0,0-2.257,1.884c0,.479.148,1.3,1.688,1.66l1.391.328c1.628.4,2.764,1.287,2.764,2.78a3.156,3.156,0,0,1-3.452,2.992A3.276,3.276,0,0,1,975.6,37.663Z" fill="#231f20"/><path d="M383.5,34.959c0-7.918,5.947-14.307,13.9-14.307a13.563,13.563,0,0,1,10.448,4.782l-2.21,2.211a10.024,10.024,0,0,0-8.238-4.059c-6.79,0-10.687,5.745-10.687,11.373s3.9,11.37,10.687,11.37c6.672,0,10.569-5.5,10.69-11.131H411.3c-.161,7.8-6.029,14.066-13.9,14.066C389.161,49.264,383.5,42.874,383.5,34.959Z" fill="#231f20"/><path d="M421.283,20.893H423.9l10.126,28.129h-3.335l-1.929-5.464H416.421l-1.929,5.464h-3.334Zm6.47,19.772L422.61,25.876l-5.185,14.789Z" fill="#231f20"/><path d="M434.972,40.22h3.215c0,3.377,2.089,6.031,5.745,6.031a5.15,5.15,0,0,0,5.466-5.546c0-4.381-3.576-5.3-7.113-6.631-2.451-.965-5.425-2.773-5.425-6.671,0-4.1,3.1-6.711,6.953-6.751a6.971,6.971,0,0,1,6.468,3.778l-2.411,1.808a4.392,4.392,0,0,0-4.018-2.572,3.539,3.539,0,0,0-3.817,3.537c0,2.851,2.652,3.615,6.148,4.981,2.572,1.005,6.43,3.056,6.43,8.239a8.563,8.563,0,0,1-8.8,8.841A8.69,8.69,0,0,1,434.972,40.22Z" fill="#231f20"/><path d="M463.432,20.893h2.613l10.127,28.129h-3.336l-1.929-5.464H458.57l-1.928,5.464h-3.335ZM469.9,40.665l-5.144-14.789-5.184,14.789Z" fill="#231f20"/><path d="M551.155,20.893h8.2c8.035,0,13.863,5.386,13.863,14.066s-5.828,14.063-13.863,14.063h-8.2Zm8.116,25.237c6.671,0,10.73-4.863,10.73-11.171s-4.059-11.172-10.73-11.172h-4.982V46.13Z" fill="#231f20"/><path d="M576.254,34.959c0-7.918,5.947-14.307,13.9-14.307s13.9,6.389,13.9,14.307-5.947,14.305-13.9,14.305S576.254,42.874,576.254,34.959Zm24.592,0c0-5.628-3.938-11.373-10.69-11.373-6.79,0-10.687,5.745-10.687,11.373s3.9,11.37,10.687,11.37C596.908,46.329,600.846,40.584,600.846,34.959Z" fill="#231f20"/><path d="M520.594,20.893h18.763v2.894H523.728v9.6h12.5v2.894h-12.5V46.13H539.6v2.892H520.594Z" fill="#231f20"/><path d="M543.642,20.893h3.134V49.022h-3.134Z" fill="#231f20"/><path d="M485.121,29.041h4.412a5.874,5.874,0,0,1,6.162,6.253,5.873,5.873,0,0,1-6.162,6.251h-4.412Zm4.43,10.289a3.676,3.676,0,0,0,3.769-4.036c0-2.609-1.661-4.056-3.769-4.056h-2.09V39.33Z" fill="#231f20"/><path d="M497.274,35.294a6.183,6.183,0,1,1,12.36,0,6.182,6.182,0,1,1-12.36,0Zm10,0a3.832,3.832,0,1,0-7.645,0,3.832,3.832,0,1,0,7.645,0Z" fill="#231f20"/><path d="M620.173,21.06V49.181a.167.167,0,1,1-.334,0V21.06a.167.167,0,1,1,.334,0Z" fill="#231f20"/></g></svg>