<svg xmlns="http://www.w3.org/2000/svg" width="198.243" height="47.746" viewBox="0 0 198.243 47.746">
  <g id="Group_40" data-name="Group 40" transform="translate(-31.407 -22.173)">
    <g id="Group_4" data-name="Group 4" transform="translate(34.863 64.11)">
      <path id="Path_47" data-name="Path 47" d="M37.693,102.661h.534a1.294,1.294,0,0,0,1.365,1.092,1.205,1.205,0,0,0,1.355-1.11c0-.616-.55-.913-1.11-1.052l-.764-.18c-1.167-.279-1.339-.962-1.339-1.413a1.666,1.666,0,0,1,1.8-1.544,1.622,1.622,0,0,1,1.759,1.535H40.75a1.124,1.124,0,0,0-1.232-1.027A1.138,1.138,0,0,0,38.277,100c0,.263.081.715.929.912l.764.18c.894.222,1.52.708,1.52,1.528a1.734,1.734,0,0,1-1.9,1.644A1.8,1.8,0,0,1,37.693,102.661Z" transform="translate(-37.693 -98.454)" fill="#0a0c0b"/>
      <path id="Path_48" data-name="Path 48" d="M47.893,102.328V98.573h.542v3.755a1.479,1.479,0,0,0,2.959,0V98.573h.542v3.755a2.022,2.022,0,0,1-4.043,0Z" transform="translate(-42.285 -98.508)" fill="#0a0c0b"/>
      <path id="Path_49" data-name="Path 49" d="M58.632,102.661h.534a1.294,1.294,0,0,0,1.365,1.092,1.205,1.205,0,0,0,1.355-1.11c0-.616-.55-.913-1.11-1.052l-.764-.18c-1.167-.279-1.339-.962-1.339-1.413a1.666,1.666,0,0,1,1.8-1.544,1.622,1.622,0,0,1,1.759,1.535h-.543a1.124,1.124,0,0,0-1.232-1.027A1.138,1.138,0,0,0,59.216,100c0,.263.081.715.929.912l.764.18c.9.222,1.52.708,1.52,1.528a1.734,1.734,0,0,1-1.9,1.644A1.8,1.8,0,0,1,58.632,102.661Z" transform="translate(-47.12 -98.454)" fill="#0a0c0b"/>
      <path id="Path_50" data-name="Path 50" d="M71.736,99.083H69.929v5.152h-.542V99.083h-1.8v-.51h4.149Z" transform="translate(-51.152 -98.508)" fill="#0a0c0b"/>
      <path id="Path_51" data-name="Path 51" d="M79.509,102.731H76.9l-.566,1.5h-.576l2.161-5.662h.575l2.153,5.662h-.566Zm-.189-.485L78.2,99.3l-1.117,2.949Z" transform="translate(-54.83 -98.508)" fill="#0a0c0b"/>
      <path id="Path_52" data-name="Path 52" d="M87.427,98.573h.542v5.662h-.542Z" transform="translate(-60.085 -98.508)" fill="#0a0c0b"/>
      <path id="Path_53" data-name="Path 53" d="M96.543,98.573v5.662h-.56l-2.9-4.717v4.717h-.542V98.573h.566L96,103.281V98.573Z" transform="translate(-62.387 -98.508)" fill="#0a0c0b"/>
      <path id="Path_54" data-name="Path 54" d="M106.347,102.731h-2.612l-.567,1.5h-.575l2.16-5.662h.575l2.153,5.662h-.567Zm-.189-.485L105.041,99.3l-1.117,2.949Z" transform="translate(-66.913 -98.508)" fill="#0a0c0b"/>
      <path id="Path_55" data-name="Path 55" d="M118.134,102.673a1.544,1.544,0,0,1-1.6,1.562h-2.259V98.573h2.054a1.346,1.346,0,0,1,1.5,1.4,1.285,1.285,0,0,1-.748,1.25A1.458,1.458,0,0,1,118.134,102.673Zm-3.319-3.59V101h1.611a.964.964,0,0,0-.108-1.922Zm2.778,3.549a1.124,1.124,0,0,0-1.175-1.151h-1.6v2.243h1.627A1.076,1.076,0,0,0,117.593,102.632Z" transform="translate(-72.172 -98.508)" fill="#0a0c0b"/>
      <path id="Path_56" data-name="Path 56" d="M124.816,98.573h.542v5.151h2.409v.51h-2.951Z" transform="translate(-76.919 -98.508)" fill="#0a0c0b"/>
      <path id="Path_57" data-name="Path 57" d="M136.4,103.724v.51h-3.32V98.573h3.23v.51h-2.695v2.12h2.349v.51h-2.349v2.012Z" transform="translate(-80.641 -98.508)" fill="#0a0c0b"/>
      <path id="Path_58" data-name="Path 58" d="M146.857,98.573h.542v5.151h2.409v.51h-2.951Z" transform="translate(-86.842 -98.508)" fill="#0a0c0b"/>
      <path id="Path_59" data-name="Path 59" d="M155.126,98.573h.542v5.662h-.542Z" transform="translate(-90.565 -98.508)" fill="#0a0c0b"/>
      <path id="Path_60" data-name="Path 60" d="M163.059,98.573l-1.694,5.662H160.8l-1.717-5.662h.567l1.431,4.807,1.421-4.807Z" transform="translate(-92.346 -98.508)" fill="#0a0c0b"/>
      <path id="Path_61" data-name="Path 61" d="M169.34,98.573h.542v5.662h-.542Z" transform="translate(-96.965 -98.508)" fill="#0a0c0b"/>
      <path id="Path_62" data-name="Path 62" d="M178.455,98.573v5.662H177.9l-2.9-4.717v4.717h-.542V98.573h.566l2.893,4.708V98.573Z" transform="translate(-99.267 -98.508)" fill="#0a0c0b"/>
      <path id="Path_63" data-name="Path 63" d="M185.192,101.362a2.861,2.861,0,0,1,2.859-2.908,2.793,2.793,0,0,1,1.8.656l-.362.371a2.311,2.311,0,0,0-1.438-.518,2.4,2.4,0,0,0,0,4.791,1.922,1.922,0,0,0,2.047-1.71l.007-.122h-1.7v-.485H190.7c-.025,1.915-1.108,2.827-2.645,2.827A2.86,2.86,0,0,1,185.192,101.362Z" transform="translate(-104.102 -98.454)" fill="#0a0c0b"/>
      <path id="Path_64" data-name="Path 64" d="M206.469,103.77v.494h-.132a1.036,1.036,0,0,1-1.108-.764,1.683,1.683,0,0,1-1.512.764,1.735,1.735,0,0,1-1.8-1.759,1.658,1.658,0,0,1,.987-1.512,1.39,1.39,0,0,1,.854-2.538,1.5,1.5,0,0,1,1.274.665l-.427.279a.984.984,0,0,0-.847-.436.9.9,0,0,0-.953.9.937.937,0,0,0,1.011.946h1.216V100.1h.526v.716h.748v.434h-.748v1.224c0,.658.106,1.29.789,1.29Zm-1.438-1.232v-1.283H203.84a1.255,1.255,0,0,0-1.413,1.233,1.3,1.3,0,0,0,2.6.049Z" transform="translate(-111.631 -98.454)" fill="#0a0c0b"/>
      <path id="Path_65" data-name="Path 65" d="M221.681,98.573v5.662h-.559l-2.9-4.717v4.717h-.542V98.573h.566l2.893,4.708V98.573Z" transform="translate(-118.728 -98.508)" fill="#0a0c0b"/>
      <path id="Path_66" data-name="Path 66" d="M231.489,102.731h-2.613l-.567,1.5h-.575l2.16-5.662h.575l2.153,5.662h-.567Zm-.19-.485L230.182,99.3l-1.117,2.949Z" transform="translate(-123.256 -98.508)" fill="#0a0c0b"/>
      <path id="Path_67" data-name="Path 67" d="M241.409,99.083H239.6v5.152h-.543V99.083h-1.8v-.51h4.149Z" transform="translate(-127.544 -98.508)" fill="#0a0c0b"/>
      <path id="Path_68" data-name="Path 68" d="M247.621,102.328V98.573h.542v3.755a1.479,1.479,0,0,0,2.959,0V98.573h.542v3.755a2.022,2.022,0,0,1-4.043,0Z" transform="translate(-132.209 -98.508)" fill="#0a0c0b"/>
      <path id="Path_69" data-name="Path 69" d="M261.181,102.016l1.569,2.218h-.657l-1.553-2.218h-.946v2.218h-.542V98.573h2.1a1.725,1.725,0,0,1,.025,3.443Zm-1.587-.5h1.429a1.1,1.1,0,0,0,1.225-1.216,1.081,1.081,0,0,0-1.084-1.216h-1.571Z" transform="translate(-137.356 -98.508)" fill="#0a0c0b"/>
      <path id="Path_70" data-name="Path 70" d="M272.713,103.724v.51h-3.319V98.573h3.229v.51h-2.695v2.12h2.349v.51h-2.349v2.012Z" transform="translate(-142.012 -98.508)" fill="#0a0c0b"/>
      <path id="Path_71" data-name="Path 71" d="M286.485,103.724v.51h-3.32V98.573h3.23v.51H283.7v2.12h2.349v.51H283.7v2.012Z" transform="translate(-148.212 -98.508)" fill="#0a0c0b"/>
      <path id="Path_72" data-name="Path 72" d="M295.618,104.235l-1.693-2.6-1.692,2.6h-.641l2.012-3.048-1.758-2.614h.649l1.429,2.178,1.429-2.178H296l-1.758,2.614,2.021,3.048Z" transform="translate(-152.006 -98.508)" fill="#0a0c0b"/>
      <path id="Path_73" data-name="Path 73" d="M306.737,100.3a1.564,1.564,0,0,1-1.643,1.725h-1.661v2.211h-.542V98.573h2.227A1.563,1.563,0,0,1,306.737,100.3Zm-.541,0a1.082,1.082,0,0,0-1.085-1.216h-1.677v2.432h1.636A1.091,1.091,0,0,0,306.2,100.3Z" transform="translate(-157.094 -98.508)" fill="#0a0c0b"/>
      <path id="Path_74" data-name="Path 74" d="M316.351,103.724v.51h-3.32V98.573h3.229v.51h-2.695v2.12h2.349v.51h-2.349v2.012Z" transform="translate(-161.659 -98.508)" fill="#0a0c0b"/>
      <path id="Path_75" data-name="Path 75" d="M324.379,102.016l1.569,2.218h-.657l-1.553-2.218h-.946v2.218h-.542V98.573h2.1a1.725,1.725,0,0,1,.025,3.443Zm-1.587-.5h1.429a1.1,1.1,0,0,0,1.225-1.216,1.081,1.081,0,0,0-1.084-1.216h-1.571Z" transform="translate(-165.81 -98.508)" fill="#0a0c0b"/>
      <path id="Path_76" data-name="Path 76" d="M332.593,98.573h.542v5.662h-.542Z" transform="translate(-170.466 -98.508)" fill="#0a0c0b"/>
      <path id="Path_77" data-name="Path 77" d="M341.026,103.724v.51h-3.32V98.573h3.23v.51h-2.7v2.12h2.349v.51h-2.349v2.012Z" transform="translate(-172.768 -98.508)" fill="#0a0c0b"/>
      <path id="Path_78" data-name="Path 78" d="M350.931,98.573v5.662h-.559l-2.9-4.717v4.717h-.542V98.573h.566l2.893,4.708V98.573Z" transform="translate(-176.921 -98.508)" fill="#0a0c0b"/>
      <path id="Path_79" data-name="Path 79" d="M357.66,101.368a2.863,2.863,0,0,1,2.843-2.9,2.736,2.736,0,0,1,2.005.856l-.386.344a2.224,2.224,0,0,0-1.619-.69,2.393,2.393,0,0,0,0,4.782,2.236,2.236,0,0,0,1.619-.69l.386.344a2.738,2.738,0,0,1-2.005.855A2.863,2.863,0,0,1,357.66,101.368Z" transform="translate(-181.752 -98.46)" fill="#0a0c0b"/>
      <path id="Path_80" data-name="Path 80" d="M372.935,103.724v.51h-3.32V98.573h3.229v.51h-2.695v2.12H372.5v.51h-2.349v2.012Z" transform="translate(-187.135 -98.508)" fill="#0a0c0b"/>
      <path id="Path_81" data-name="Path 81" d="M378.139,102.661h.535a1.293,1.293,0,0,0,1.364,1.092,1.206,1.206,0,0,0,1.356-1.11c0-.616-.551-.913-1.11-1.052l-.764-.18c-1.167-.279-1.34-.962-1.34-1.413a1.666,1.666,0,0,1,1.8-1.544,1.622,1.622,0,0,1,1.759,1.535H381.2a1.124,1.124,0,0,0-1.232-1.027,1.138,1.138,0,0,0-1.24,1.036c0,.263.081.715.928.912l.764.18c.895.222,1.52.708,1.52,1.528a1.734,1.734,0,0,1-1.9,1.644A1.8,1.8,0,0,1,378.139,102.661Z" transform="translate(-190.973 -98.454)" fill="#0a0c0b"/>
    </g>
    <g id="Group_5" data-name="Group 5" transform="translate(32.597 22.173)">
      <path id="Path_82" data-name="Path 82" d="M33.572,34.878a12.364,12.364,0,0,1,12.346-12.7,12.043,12.043,0,0,1,9.277,4.246l-1.963,1.963a8.9,8.9,0,0,0-7.315-3.6c-6.03,0-9.491,5.1-9.491,10.1s3.461,10.1,9.491,10.1c5.924,0,9.385-4.887,9.492-9.884h2.854c-.142,6.924-5.353,12.491-12.347,12.491C38.6,47.581,33.572,41.906,33.572,34.878Z" transform="translate(-33.572 -22.173)" fill="#0a0c0b"/>
      <path id="Path_83" data-name="Path 83" d="M87.244,22.562h2.32l8.993,24.979H95.594l-1.713-4.852H82.927l-1.713,4.852H78.253ZM92.99,40.12,88.422,26.987l-4.6,13.133Z" transform="translate(-53.689 -22.348)" fill="#0a0c0b"/>
      <path id="Path_84" data-name="Path 84" d="M116.718,39.55h2.854c0,3,1.855,5.355,5.1,5.355a4.573,4.573,0,0,0,4.854-4.925c0-3.89-3.176-4.71-6.317-5.888-2.177-.857-4.818-2.462-4.818-5.924a5.9,5.9,0,0,1,6.174-5.994,6.191,6.191,0,0,1,5.744,3.355l-2.141,1.605a3.9,3.9,0,0,0-3.568-2.284,3.142,3.142,0,0,0-3.389,3.141c0,2.532,2.355,3.211,5.459,4.423,2.284.892,5.709,2.714,5.709,7.316a7.6,7.6,0,0,1-7.814,7.851A7.717,7.717,0,0,1,116.718,39.55Z" transform="translate(-71.007 -22.173)" fill="#0a0c0b"/>
      <path id="Path_85" data-name="Path 85" d="M155.325,22.562h2.321l8.993,24.979h-2.962l-1.713-4.852H151.008l-1.713,4.852h-2.96Zm5.746,17.558L156.5,26.987,151.9,40.12Z" transform="translate(-84.341 -22.348)" fill="#0a0c0b"/>
      <path id="Path_86" data-name="Path 86" d="M304.381,22.562h7.28c7.136,0,12.31,4.782,12.31,12.491s-5.174,12.488-12.31,12.488h-7.28Zm7.207,22.41c5.925,0,9.529-4.318,9.529-9.919s-3.6-9.921-9.529-9.921h-4.423V44.972Z" transform="translate(-155.499 -22.348)" fill="#0a0c0b"/>
      <path id="Path_87" data-name="Path 87" d="M344.922,34.878a12.351,12.351,0,1,1,24.693,0,12.351,12.351,0,1,1-24.693,0Zm21.838,0c0-5-3.5-10.1-9.492-10.1-6.03,0-9.491,5.1-9.491,10.1s3.46,10.1,9.491,10.1C363.263,44.974,366.76,39.872,366.76,34.878Z" transform="translate(-173.752 -22.173)" fill="#0a0c0b"/>
      <path id="Path_88" data-name="Path 88" d="M255.018,22.562h16.661v2.57H257.8V33.66h11.1v2.57H257.8v8.743h14.093v2.569H255.018Z" transform="translate(-133.274 -22.348)" fill="#0a0c0b"/>
      <path id="Path_89" data-name="Path 89" d="M292.246,22.562h2.783V47.541h-2.783Z" transform="translate(-150.035 -22.348)" fill="#0a0c0b"/>
      <path id="Path_90" data-name="Path 90" d="M197.72,35.723h3.918a5.216,5.216,0,0,1,5.472,5.552,5.216,5.216,0,0,1-5.472,5.551H197.72Zm3.934,9.136A3.264,3.264,0,0,0,205,41.275a3.279,3.279,0,0,0-3.347-3.6H199.8v7.185Z" transform="translate(-107.477 -28.274)" fill="#0a0c0b"/>
      <path id="Path_91" data-name="Path 91" d="M217.351,41.2a5.49,5.49,0,1,1,5.488,5.647A5.476,5.476,0,0,1,217.351,41.2Zm8.883,0a3.4,3.4,0,1,0-6.789,0,3.4,3.4,0,1,0,6.789,0Z" transform="translate(-116.315 -28.196)" fill="#0a0c0b"/>
    </g>
    <path id="Path_92" data-name="Path 92" d="M229.5,84.174H31.555a.148.148,0,1,1,0-.3H229.5a.148.148,0,1,1,0,.3Z" transform="translate(0 -27.782)" fill="#0a0c0b"/>
  </g>
</svg>
