<?xml version="1.0" encoding="UTF-8"?>
<svg id="Layer_1" data-name="Layer 1" xmlns="http://www.w3.org/2000/svg" viewBox="0 0 168.38 40.55">
  <defs>
    <style>
      .cls-1 {
        fill: #0c0d0c;
        stroke-width: 0px;
      }
    </style>
  </defs>
  <g>
    <path class="cls-1" d="m2.94,39.19h.45c.05.47.48.93,1.16.93.77,0,1.15-.49,1.15-.94,0-.52-.47-.77-.94-.89l-.65-.15c-.99-.24-1.14-.82-1.14-1.2,0-.8.73-1.31,1.53-1.31s1.47.5,1.49,1.3h-.46c-.03-.53-.47-.87-1.05-.87-.54,0-1.05.34-1.05.88,0,.22.07.61.79.77l.65.15c.76.19,1.29.6,1.29,1.3s-.56,1.4-1.61,1.4c-.94,0-1.58-.66-1.61-1.36Z"/>
    <path class="cls-1" d="m7.7,38.87v-3.19h.46v3.19c0,.8.57,1.25,1.26,1.25s1.26-.45,1.26-1.25v-3.19h.46v3.19c0,1.05-.79,1.69-1.72,1.69s-1.72-.64-1.72-1.69Z"/>
    <path class="cls-1" d="m12.71,39.19h.45c.05.47.48.93,1.16.93.77,0,1.15-.49,1.15-.94,0-.52-.47-.77-.94-.89l-.65-.15c-.99-.24-1.14-.82-1.14-1.2,0-.8.73-1.31,1.53-1.31s1.47.5,1.49,1.3h-.46c-.03-.53-.47-.87-1.05-.87-.54,0-1.05.34-1.05.88,0,.22.07.61.79.77l.65.15c.76.19,1.29.6,1.29,1.3s-.56,1.4-1.61,1.4c-.94,0-1.58-.66-1.61-1.36Z"/>
    <path class="cls-1" d="m20.42,36.11h-1.54v4.38h-.46v-4.38h-1.53v-.43h3.52v.43Z"/>
    <path class="cls-1" d="m23.9,39.21h-2.22l-.48,1.28h-.49l1.83-4.81h.49l1.83,4.81h-.48l-.48-1.28Zm-.16-.41l-.95-2.5-.95,2.5h1.9Z"/>
    <path class="cls-1" d="m26.16,35.68h.46v4.81h-.46v-4.81Z"/>
    <path class="cls-1" d="m31.95,35.68v4.81h-.48l-2.46-4.01v4.01h-.46v-4.81h.48l2.46,4v-4h.46Z"/>
    <path class="cls-1" d="m36.43,39.21h-2.22l-.48,1.28h-.49l1.83-4.81h.49l1.83,4.81h-.48l-.48-1.28Zm-.16-.41l-.95-2.5-.95,2.5h1.9Z"/>
    <path class="cls-1" d="m41.97,39.16c0,.68-.51,1.33-1.36,1.33h-1.92v-4.81h1.74c.77,0,1.28.44,1.28,1.19,0,.43-.19.88-.64,1.06.61.16.89.73.89,1.24Zm-2.82-3.05v1.63h1.37c.47,0,.73-.37.73-.84s-.31-.79-.82-.79h-1.28Zm2.36,3.01c0-.52-.37-.98-1-.98h-1.36v1.91h1.38c.62,0,.98-.43.98-.93Z"/>
    <path class="cls-1" d="m43.62,35.68h.46v4.38h2.05v.43h-2.51v-4.81Z"/>
    <path class="cls-1" d="m50.3,40.05v.43h-2.82v-4.81h2.74v.43h-2.29v1.8h2v.43h-2v1.71h2.37Z"/>
    <path class="cls-1" d="m53.91,35.68h.46v4.38h2.05v.43h-2.51v-4.81Z"/>
    <path class="cls-1" d="m57.77,35.68h.46v4.81h-.46v-4.81Z"/>
    <path class="cls-1" d="m63,35.68l-1.44,4.81h-.48l-1.46-4.81h.48l1.22,4.08,1.21-4.08h.48Z"/>
    <path class="cls-1" d="m64.41,35.68h.46v4.81h-.46v-4.81Z"/>
    <path class="cls-1" d="m70.2,35.68v4.81h-.48l-2.46-4.01v4.01h-.46v-4.81h.48l2.46,4v-4h.46Z"/>
    <path class="cls-1" d="m71.81,38.09c0-1.37,1.06-2.47,2.43-2.47.59,0,1.12.22,1.53.56l-.31.31c-.33-.27-.76-.44-1.22-.44-1.11,0-1.97.92-1.97,2.04s.86,2.03,1.97,2.03c.91,0,1.61-.52,1.74-1.45v-.1s-1.44,0-1.44,0v-.41h1.95c-.02,1.63-.94,2.4-2.25,2.4s-2.43-1.1-2.43-2.46Z"/>
    <path class="cls-1" d="m83.49,40.14v.42h-.11c-.45,0-.86-.22-.94-.65-.24.45-.78.65-1.28.65-.93,0-1.53-.69-1.53-1.49,0-.57.33-1.05.84-1.28-.31-.2-.52-.59-.52-.98,0-.62.52-1.17,1.24-1.17.47,0,.86.22,1.08.57l-.36.24c-.16-.24-.43-.37-.72-.37-.47,0-.81.34-.81.77s.3.8.86.8h1.03v-.6h.45v.61h.64v.37h-.64v1.04c0,.56.09,1.1.67,1.1h.1Zm-1.22-1.05v-1.09h-1.01c-.76,0-1.2.45-1.2,1.05s.42,1.07,1.11,1.07c.65,0,1.08-.45,1.1-1.03Z"/>
    <path class="cls-1" d="m90.38,35.68v4.81h-.48l-2.46-4.01v4.01h-.46v-4.81h.48l2.46,4v-4h.46Z"/>
    <path class="cls-1" d="m94.87,39.21h-2.22l-.48,1.28h-.49l1.83-4.81h.49l1.83,4.81h-.48l-.48-1.28Zm-.16-.41l-.95-2.5-.95,2.5h1.9Z"/>
    <path class="cls-1" d="m99.65,36.11h-1.54v4.38h-.46v-4.38h-1.53v-.43h3.52v.43Z"/>
    <path class="cls-1" d="m100.96,38.87v-3.19h.46v3.19c0,.8.57,1.25,1.26,1.25s1.26-.45,1.26-1.25v-3.19h.46v3.19c0,1.05-.79,1.69-1.72,1.69s-1.72-.64-1.72-1.69Z"/>
    <path class="cls-1" d="m108.11,38.6l1.33,1.88h-.56l-1.32-1.88h-.8v1.88h-.46v-4.81h1.79c1,0,1.39.73,1.39,1.47s-.38,1.44-1.37,1.46Zm-1.35-.43h1.21c.75,0,1.04-.46,1.04-1.03s-.31-1.03-.92-1.03h-1.33v2.07Z"/>
    <path class="cls-1" d="m113.95,40.05v.43h-2.82v-4.81h2.74v.43h-2.29v1.8h2v.43h-2v1.71h2.37Z"/>
    <path class="cls-1" d="m120.38,40.05v.43h-2.82v-4.81h2.74v.43h-2.29v1.8h2v.43h-2v1.71h2.37Z"/>
    <path class="cls-1" d="m124.92,40.48l-1.44-2.21-1.44,2.21h-.54l1.71-2.59-1.49-2.22h.55l1.21,1.85,1.21-1.85h.55l-1.49,2.22,1.72,2.59h-.55Z"/>
    <path class="cls-1" d="m130.04,37.14c0,.75-.39,1.46-1.4,1.46h-1.41v1.88h-.46v-4.81h1.89c.98,0,1.37.73,1.37,1.47Zm-.46,0c0-.52-.26-1.03-.92-1.03h-1.42v2.07h1.39c.69,0,.96-.51.96-1.03Z"/>
    <path class="cls-1" d="m134.33,40.05v.43h-2.82v-4.81h2.74v.43h-2.29v1.8h2v.43h-2v1.71h2.37Z"/>
    <path class="cls-1" d="m137.62,38.6l1.33,1.88h-.56l-1.32-1.88h-.8v1.88h-.46v-4.81h1.79c1,0,1.39.73,1.39,1.47s-.38,1.44-1.37,1.46Zm-1.35-.43h1.21c.75,0,1.04-.46,1.04-1.03s-.31-1.03-.92-1.03h-1.33v2.07Z"/>
    <path class="cls-1" d="m140.64,35.68h.46v4.81h-.46v-4.81Z"/>
    <path class="cls-1" d="m145.85,40.05v.43h-2.82v-4.81h2.74v.43h-2.29v1.8h2v.43h-2v1.71h2.37Z"/>
    <path class="cls-1" d="m150.74,35.68v4.81h-.48l-2.46-4.01v4.01h-.46v-4.81h.48l2.46,4v-4h.46Z"/>
    <path class="cls-1" d="m152.35,38.09c0-1.36,1.07-2.46,2.41-2.46.68,0,1.28.28,1.7.73l-.33.29c-.34-.36-.84-.59-1.37-.59-1.1,0-1.95.91-1.95,2.03s.86,2.03,1.95,2.03c.54,0,1.03-.22,1.37-.59l.33.29c-.42.45-1.03.73-1.7.73-1.35,0-2.41-1.1-2.41-2.46Z"/>
    <path class="cls-1" d="m160.75,40.05v.43h-2.82v-4.81h2.74v.43h-2.29v1.8h2v.43h-2v1.71h2.37Z"/>
    <path class="cls-1" d="m161.91,39.19h.45c.05.47.48.93,1.16.93.77,0,1.15-.49,1.15-.94,0-.52-.47-.77-.94-.89l-.65-.15c-.99-.24-1.14-.82-1.14-1.2,0-.8.73-1.31,1.53-1.31s1.47.5,1.49,1.3h-.46c-.03-.53-.47-.87-1.05-.87-.54,0-1.05.34-1.05.88,0,.22.07.61.79.77l.65.15c.76.19,1.29.6,1.29,1.3s-.56,1.4-1.61,1.4c-.94,0-1.58-.66-1.61-1.36Z"/>
  </g>
  <g>
    <path class="cls-1" d="m1.01,10.79C1.01,4.82,5.5,0,11.5,0c3.24,0,5.97,1.39,7.88,3.61l-1.67,1.67c-1.39-1.82-3.46-3.06-6.21-3.06C6.37,2.21,3.44,6.55,3.44,10.79s2.94,8.58,8.06,8.58,7.97-4.15,8.06-8.4h2.42c-.12,5.88-4.55,10.61-10.49,10.61S1.01,16.76,1.01,10.79Z"/>
    <path class="cls-1" d="m29.51.18h1.97l7.64,21.22h-2.52l-1.45-4.12h-9.31l-1.45,4.12h-2.51L29.51.18Zm4.88,14.91l-3.88-11.15-3.91,11.15h7.79Z"/>
    <path class="cls-1" d="m39.84,14.76h2.42c0,2.55,1.58,4.55,4.33,4.55,2.52,0,4.12-1.64,4.12-4.18,0-3.3-2.7-4-5.37-5-1.85-.73-4.09-2.09-4.09-5.03,0-3.09,2.33-5.06,5.24-5.09,2.3,0,4.06,1.18,4.88,2.85l-1.82,1.36c-.73-1.36-1.82-1.94-3.03-1.94-1.61,0-2.88,1.03-2.88,2.67,0,2.15,2,2.73,4.64,3.76,1.94.76,4.85,2.31,4.85,6.21s-2.76,6.67-6.64,6.67-6.67-3.06-6.67-6.82Z"/>
    <path class="cls-1" d="m61.3.18h1.97l7.64,21.22h-2.52l-1.45-4.12h-9.31l-1.45,4.12h-2.51L61.3.18Zm4.88,14.91l-3.88-11.15-3.91,11.15h7.79Z"/>
    <path class="cls-1" d="m127.47.18h6.18c6.06,0,10.46,4.06,10.46,10.61s-4.4,10.61-10.46,10.61h-6.18V.18Zm6.12,19.03c5.03,0,8.09-3.67,8.09-8.43s-3.06-8.43-8.09-8.43h-3.76v16.85h3.76Z"/>
    <path class="cls-1" d="m146.4,10.79c0-5.97,4.49-10.79,10.49-10.79s10.49,4.82,10.49,10.79-4.49,10.79-10.49,10.79-10.49-4.82-10.49-10.79Zm18.55,0c0-4.24-2.97-8.58-8.06-8.58s-8.06,4.33-8.06,8.58,2.94,8.58,8.06,8.58,8.06-4.33,8.06-8.58Z"/>
    <path class="cls-1" d="m104.42.18h14.15v2.18h-11.79v7.24h9.43v2.18h-9.43v7.43h11.97v2.18h-14.33V.18Z"/>
    <path class="cls-1" d="m121.8.18h2.36v21.22h-2.36V.18Z"/>
    <path class="cls-1" d="m77.66,6.33h3.33c2.69,0,4.65,1.81,4.65,4.72s-1.95,4.71-4.65,4.71h-3.33V6.33Zm3.34,7.76c1.59,0,2.84-1.08,2.84-3.04s-1.25-3.06-2.84-3.06h-1.58v6.1h1.58Z"/>
    <path class="cls-1" d="m86.83,11.04c0-2.65,1.97-4.8,4.66-4.8s4.66,2.14,4.66,4.8-1.97,4.8-4.66,4.8-4.66-2.14-4.66-4.8Zm7.54,0c0-1.75-1.17-3.1-2.88-3.1s-2.88,1.35-2.88,3.1,1.19,3.1,2.88,3.1,2.88-1.35,2.88-3.1Z"/>
  </g>
  <path class="cls-1" d="m168.26,29.07H.13c-.07,0-.13-.06-.13-.13s.06-.13.13-.13h168.13c.07,0,.13.06.13.13s-.06.13-.13.13Z"/>
</svg>